<svg width="12" height="12" viewBox="0 0 12 12" fill="none" xmlns="http://www.w3.org/2000/svg">
<path d="M6 4.7998C6.33137 4.7998 6.59961 5.06902 6.59961 5.40039V9C6.5996 9.33136 6.33136 9.59961 6 9.59961C5.66864 9.59961 5.4004 9.33136 5.40039 9V5.40039C5.40039 5.06902 5.66863 4.7998 6 4.7998Z" fill="#165DFF"/>
<path d="M6 2.84961C6.33137 2.84961 6.59961 3.11882 6.59961 3.4502C6.59949 3.78147 6.3313 4.0498 6 4.0498C5.6687 4.0498 5.40051 3.78147 5.40039 3.4502C5.40039 3.11882 5.66863 2.84961 6 2.84961Z" fill="#165DFF"/>
<path fill-rule="evenodd" clip-rule="evenodd" d="M6 0C9.31371 0 12 2.68629 12 6C12 9.31371 9.31371 12 6 12C2.68629 12 0 9.31371 0 6C0 2.68629 2.68629 0 6 0ZM6 1C3.23858 1 1 3.23858 1 6C1 8.76142 3.23858 11 6 11C8.76142 11 11 8.76142 11 6C11 3.23858 8.76142 1 6 1Z" fill="#165DFF"/>
</svg>
