<svg width="22" height="22" viewBox="0 0 22 22" fill="none" xmlns="http://www.w3.org/2000/svg">
<path d="M0 5C0 2.23858 2.23858 0 5 0H17C19.7614 0 22 2.23858 22 5V17C22 19.7614 19.7614 22 17 22H5C2.23858 22 0 19.7614 0 17V5Z" fill="#EBF2FF"/>
<g clip-path="url(#clip0_593_709)">
<path d="M11 12.8461C12.0196 12.8461 12.8461 12.0196 12.8461 11C12.8461 9.98036 12.0196 9.15381 11 9.15381C9.98036 9.15381 9.15381 9.98036 9.15381 11C9.15381 12.0196 9.98036 12.8461 11 12.8461Z" stroke="#165DFF" stroke-width="1.10769"/>
<path d="M10.9998 5.92285V7.03054M10.9998 14.969V16.0767M5.92285 10.9998H7.03054M14.969 10.9998H16.0767M7.27054 7.27054L8.05516 8.05516M13.9444 13.9444L14.729 14.729M13.9444 8.05516L13.1598 8.83977M8.05516 13.9444L7.27054 14.729" stroke="#165DFF" stroke-width="1.10769" stroke-linecap="round"/>
</g>
<defs>
<clipPath id="clip0_593_709">
<rect width="12" height="12" fill="white" transform="translate(5 5)"/>
</clipPath>
</defs>
</svg>
