<svg width="16" height="16" viewBox="0 0 16 16" fill="none" xmlns="http://www.w3.org/2000/svg">
<g clip-path="url(#clip0_567_881)">
<mask id="mask0_567_881" style="mask-type:luminance" maskUnits="userSpaceOnUse" x="0" y="0" width="16" height="16">
<rect width="16" height="16" fill="white"/>
</mask>
<g mask="url(#mask0_567_881)">
<path d="M2.16675 3.33333C2.16675 3.01117 2.42792 2.75 2.75008 2.75H13.2501C13.5722 2.75 13.8334 3.01117 13.8334 3.33333C13.8334 3.6555 13.5722 3.91667 13.2501 3.91667H2.75008C2.42792 3.91667 2.16675 3.6555 2.16675 3.33333Z" fill="#2B2F36"/>
<path d="M2.16675 8C2.16675 7.67783 2.42792 7.41667 2.75008 7.41667H13.2501C13.5722 7.41667 13.8334 7.67783 13.8334 8C13.8334 8.32217 13.5722 8.58333 13.2501 8.58333H2.75008C2.42792 8.58333 2.16675 8.32217 2.16675 8Z" fill="#2B2F36"/>
<path d="M2.75008 12.0833C2.42792 12.0833 2.16675 12.3445 2.16675 12.6667C2.16675 12.9888 2.42792 13.25 2.75008 13.25H7.41675C7.73891 13.25 8.00008 12.9888 8.00008 12.6667C8.00008 12.3445 7.73891 12.0833 7.41675 12.0833H2.75008Z" fill="#2B2F36"/>
<path d="M10.8312 12.7483C10.5823 12.5617 10.5823 12.1883 10.8312 12.0017L13.0867 10.31C13.3944 10.0793 13.8334 10.2988 13.8334 10.6833V14.0667C13.8334 14.4512 13.3944 14.6707 13.0867 14.44L10.8312 12.7483Z" fill="#2B2F36"/>
</g>
</g>
<defs>
<clipPath id="clip0_567_881">
<rect width="16" height="16" fill="white"/>
</clipPath>
</defs>
</svg>
