<svg width="19" height="19" viewBox="0 0 19 19" fill="none" xmlns="http://www.w3.org/2000/svg">
<path d="M2.41667 14.0833V13.9167C2.41667 12.5165 2.41667 11.8165 2.68915 11.2817C2.92883 10.8113 3.31129 10.4288 3.78169 10.1892C4.31647 9.91667 5.01654 9.91667 6.41667 9.91667H11.75C13.1501 9.91667 13.8502 9.91667 14.385 10.1892C14.8554 10.4288 15.2378 10.8113 15.4775 11.2817C15.75 11.8165 15.75 12.5165 15.75 13.9167V14.0833M2.41667 14.0833C1.49619 14.0833 0.75 14.8295 0.75 15.75C0.75 16.6705 1.49619 17.4167 2.41667 17.4167C3.33714 17.4167 4.08333 16.6705 4.08333 15.75C4.08333 14.8295 3.33714 14.0833 2.41667 14.0833ZM15.75 14.0833C14.8295 14.0833 14.0833 14.8295 14.0833 15.75C14.0833 16.6705 14.8295 17.4167 15.75 17.4167C16.6705 17.4167 17.4167 16.6705 17.4167 15.75C17.4167 14.8295 16.6705 14.0833 15.75 14.0833ZM9.08333 14.0833C8.16286 14.0833 7.41667 14.8295 7.41667 15.75C7.41667 16.6705 8.16286 17.4167 9.08333 17.4167C10.0038 17.4167 10.75 16.6705 10.75 15.75C10.75 14.8295 10.0038 14.0833 9.08333 14.0833ZM9.08333 14.0833V5.75M4.08333 5.75H14.0833C14.8599 5.75 15.2482 5.75 15.5545 5.62313C15.9629 5.45398 16.2873 5.12952 16.4565 4.72114C16.5833 4.41485 16.5833 4.02657 16.5833 3.25C16.5833 2.47343 16.5833 2.08515 16.4565 1.77886C16.2873 1.37048 15.9629 1.04602 15.5545 0.876867C15.2482 0.75 14.8599 0.75 14.0833 0.75H4.08333C3.30676 0.75 2.91848 0.75 2.61219 0.876867C2.20381 1.04602 1.87936 1.37048 1.7102 1.77886C1.58333 2.08515 1.58333 2.47343 1.58333 3.25C1.58333 4.02657 1.58333 4.41485 1.7102 4.72114C1.87936 5.12952 2.20381 5.45398 2.61219 5.62313C2.91848 5.75 3.30676 5.75 4.08333 5.75Z" stroke="#1D2129" stroke-width="1.5" stroke-linecap="round" stroke-linejoin="round"/>
</svg>
