<svg width="20" height="20" viewBox="0 0 20 20" fill="none" xmlns="http://www.w3.org/2000/svg">
<path d="M13.1243 13.125C12.9382 12.4294 12.5345 11.8116 11.9723 11.3619C11.41 10.9121 10.7187 10.6539 9.99927 10.625C9.27983 10.6539 8.58849 10.9121 8.02625 11.3619C7.46401 11.8116 7.06036 12.4294 6.87427 13.125M13.7501 3.5C14.8917 4.16017 15.8399 5.10844 16.5001 6.25M16.5001 13.75C15.8399 14.8916 14.8917 15.8398 13.7501 16.5M6.2501 16.5C5.10854 15.8398 4.16027 14.8916 3.5001 13.75M3.5001 6.25C4.16027 5.10844 5.10854 4.16017 6.2501 3.5M8.12427 8.125C8.11901 8.3745 8.16361 8.62254 8.25545 8.85458C8.34729 9.08662 8.48453 9.29799 8.65912 9.4763C8.83372 9.65461 9.04215 9.79628 9.2722 9.89299C9.50225 9.98971 9.7493 10.0395 9.99885 10.0395C10.2484 10.0395 10.4955 9.98971 10.7255 9.89299C10.9556 9.79628 11.164 9.65461 11.3386 9.4763C11.5132 9.29799 11.6504 9.08662 11.7423 8.85458C11.8341 8.62254 11.8787 8.3745 11.8734 8.125C11.8631 7.63467 11.6611 7.16791 11.3106 6.8248C10.9602 6.48168 10.4893 6.28953 9.99885 6.28953C9.50842 6.28953 9.0375 6.48168 8.68708 6.8248C8.33665 7.16791 8.13461 7.63467 8.12427 8.125ZM8.43677 2.1875C8.43677 2.6019 8.60139 2.99933 8.89441 3.29235C9.18744 3.58538 9.58487 3.75 9.99927 3.75C10.4137 3.75 10.8111 3.58538 11.1041 3.29235C11.3971 2.99933 11.5618 2.6019 11.5618 2.1875C11.5618 1.7731 11.3971 1.37567 11.1041 1.08265C10.8111 0.78962 10.4137 0.625 9.99927 0.625C9.58487 0.625 9.18744 0.78962 8.89441 1.08265C8.60139 1.37567 8.43677 1.7731 8.43677 2.1875ZM16.2493 10C16.2493 10.4144 16.4139 10.8118 16.7069 11.1049C16.9999 11.3979 17.3974 11.5625 17.8118 11.5625C18.2262 11.5625 18.6236 11.3979 18.9166 11.1049C19.2096 10.8118 19.3743 10.4144 19.3743 10C19.3743 9.5856 19.2096 9.18817 18.9166 8.89515C18.6236 8.60212 18.2262 8.4375 17.8118 8.4375C17.3974 8.4375 16.9999 8.60212 16.7069 8.89515C16.4139 9.18817 16.2493 9.5856 16.2493 10ZM8.43677 17.8125C8.43677 18.2269 8.60139 18.6243 8.89441 18.9174C9.18744 19.2104 9.58487 19.375 9.99927 19.375C10.4137 19.375 10.8111 19.2104 11.1041 18.9174C11.3971 18.6243 11.5618 18.2269 11.5618 17.8125C11.5618 17.3981 11.3971 17.0007 11.1041 16.7076C10.8111 16.4146 10.4137 16.25 9.99927 16.25C9.58487 16.25 9.18744 16.4146 8.89441 16.7076C8.60139 17.0007 8.43677 17.3981 8.43677 17.8125ZM0.624268 10C0.624268 10.4144 0.788888 10.8118 1.08191 11.1049C1.37494 11.3979 1.77237 11.5625 2.18677 11.5625C2.60117 11.5625 2.9986 11.3979 3.29162 11.1049C3.58465 10.8118 3.74927 10.4144 3.74927 10C3.74927 9.5856 3.58465 9.18817 3.29162 8.89515C2.9986 8.60212 2.60117 8.4375 2.18677 8.4375C1.77237 8.4375 1.37494 8.60212 1.08191 8.89515C0.788888 9.18817 0.624268 9.5856 0.624268 10Z" stroke="#1D2129" stroke-width="1.5" stroke-linecap="round" stroke-linejoin="round"/>
</svg>
