<svg width="17" height="17" viewBox="0 0 17 17" fill="none" xmlns="http://www.w3.org/2000/svg">
<path d="M0.75 0.75V9.25C0.75 10.6501 0.75 11.3502 1.02248 11.885C1.26217 12.3554 1.64462 12.7378 2.11502 12.9775C2.6498 13.25 3.34987 13.25 4.75 13.25H10.75M10.75 13.25C10.75 14.6307 11.8693 15.75 13.25 15.75C14.6307 15.75 15.75 14.6307 15.75 13.25C15.75 11.8693 14.6307 10.75 13.25 10.75C11.8693 10.75 10.75 11.8693 10.75 13.25ZM0.75 4.91667L10.75 4.91667M10.75 4.91667C10.75 6.29738 11.8693 7.41667 13.25 7.41667C14.6307 7.41667 15.75 6.29738 15.75 4.91667C15.75 3.53595 14.6307 2.41667 13.25 2.41667C11.8693 2.41667 10.75 3.53596 10.75 4.91667Z" stroke="#1D2129" stroke-width="1.5" stroke-linecap="round" stroke-linejoin="round"/>
</svg>
