<svg width="38" height="38" viewBox="0 0 38 38" fill="none" xmlns="http://www.w3.org/2000/svg">
<path d="M0 19C0 8.50659 8.50659 0 19 0C29.4934 0 38 8.50659 38 19C38 29.4934 29.4934 38 19 38C8.50659 38 0 29.4934 0 19Z" fill="#EBF2FF"/>
<path d="M25 11H13C11.8954 11 11 11.8954 11 13V21C11 22.1046 11.8954 23 13 23H25C26.1046 23 27 22.1046 27 21V13C27 11.8954 26.1046 11 25 11Z" stroke="#165DFF" stroke-width="1.3"/>
<path d="M15 27H23" stroke="#165DFF" stroke-width="1.3" stroke-linecap="round"/>
<path d="M19 23V27" stroke="#165DFF" stroke-width="1.3" stroke-linecap="round"/>
<path d="M16 17L19 20L22 17" stroke="#165DFF" stroke-width="1.3" stroke-linecap="round" stroke-linejoin="round"/>
<path d="M19 14V20" stroke="#165DFF" stroke-width="1.3" stroke-linecap="round"/>
</svg>
