<svg width="38" height="38" viewBox="0 0 38 38" fill="none" xmlns="http://www.w3.org/2000/svg">
<path d="M0 19C0 8.50659 8.50659 0 19 0C29.4934 0 38 8.50659 38 19C38 29.4934 29.4934 38 19 38C8.50659 38 0 29.4934 0 19Z" fill="#EBF2FF"/>
<path d="M12 14H26" stroke="#165DFF" stroke-width="1.3" stroke-linecap="round"/>
<path d="M14 19H24" stroke="#165DFF" stroke-width="1.3" stroke-linecap="round"/>
<path d="M16 24H22" stroke="#165DFF" stroke-width="1.3" stroke-linecap="round"/>
<path d="M16 16C17.1046 16 18 15.1046 18 14C18 12.8954 17.1046 12 16 12C14.8954 12 14 12.8954 14 14C14 15.1046 14.8954 16 16 16Z" fill="white" stroke="#165DFF" stroke-width="1.3"/>
<path d="M22 21C23.1046 21 24 20.1046 24 19C24 17.8954 23.1046 17 22 17C20.8954 17 20 17.8954 20 19C20 20.1046 20.8954 21 22 21Z" fill="white" stroke="#165DFF" stroke-width="1.3"/>
<path d="M19 26C20.1046 26 21 25.1046 21 24C21 22.8954 20.1046 22 19 22C17.8954 22 17 22.8954 17 24C17 25.1046 17.8954 26 19 26Z" fill="white" stroke="#165DFF" stroke-width="1.3"/>
</svg>
