<svg width="38" height="38" viewBox="0 0 38 38" fill="none" xmlns="http://www.w3.org/2000/svg">
<path d="M0 19C0 8.50659 8.50659 0 19 0C29.4934 0 38 8.50659 38 19C38 29.4934 29.4934 38 19 38C8.50659 38 0 29.4934 0 19Z" fill="#EBF2FF"/>
<path d="M21.2 11H13.8C12.8059 11 12 11.8059 12 12.8V23.2C12 24.1941 12.8059 25 13.8 25H21.2C22.1941 25 23 24.1941 23 23.2V12.8C23 11.8059 22.1941 11 21.2 11Z" stroke="#165DFF" stroke-width="1.3"/>
<path d="M15 15H20" stroke="#165DFF" stroke-width="1.2" stroke-linecap="round"/>
<path d="M15 18H20" stroke="#165DFF" stroke-width="1.2" stroke-linecap="round"/>
<path d="M15 21H18" stroke="#165DFF" stroke-width="1.2" stroke-linecap="round"/>
<path d="M22 22L26 26" stroke="#165DFF" stroke-width="1.3" stroke-linecap="round"/>
<path d="M24 22H26V24" stroke="#165DFF" stroke-width="1.3" stroke-linecap="round" stroke-linejoin="round"/>
</svg>
