<svg width="38" height="38" viewBox="0 0 38 38" fill="none" xmlns="http://www.w3.org/2000/svg">
<path d="M0 19C0 8.50659 8.50659 0 19 0C29.4934 0 38 8.50659 38 19C38 29.4934 29.4934 38 19 38C8.50659 38 0 29.4934 0 19Z" fill="#EBF2FF"/>
<path d="M19 21.5C20.3807 21.5 21.5 20.3807 21.5 19C21.5 17.6193 20.3807 16.5 19 16.5C17.6193 16.5 16.5 17.6193 16.5 19C16.5 20.3807 17.6193 21.5 19 21.5Z" fill="#165DFF"/>
<path d="M13.0002 15.8002C13.9943 15.8002 14.8002 14.9943 14.8002 14.0002C14.8002 13.0061 13.9943 12.2002 13.0002 12.2002C12.0061 12.2002 11.2002 13.0061 11.2002 14.0002C11.2002 14.9943 12.0061 15.8002 13.0002 15.8002Z" stroke="#165DFF" stroke-width="1.2"/>
<path d="M25.0002 15.8002C25.9943 15.8002 26.8002 14.9943 26.8002 14.0002C26.8002 13.0061 25.9943 12.2002 25.0002 12.2002C24.0061 12.2002 23.2002 13.0061 23.2002 14.0002C23.2002 14.9943 24.0061 15.8002 25.0002 15.8002Z" stroke="#165DFF" stroke-width="1.2"/>
<path d="M13.0002 25.8002C13.9943 25.8002 14.8002 24.9943 14.8002 24.0002C14.8002 23.0061 13.9943 22.2002 13.0002 22.2002C12.0061 22.2002 11.2002 23.0061 11.2002 24.0002C11.2002 24.9943 12.0061 25.8002 13.0002 25.8002Z" stroke="#165DFF" stroke-width="1.2"/>
<path d="M25.0002 25.8002C25.9943 25.8002 26.8002 24.9943 26.8002 24.0002C26.8002 23.0061 25.9943 22.2002 25.0002 22.2002C24.0061 22.2002 23.2002 23.0061 23.2002 24.0002C23.2002 24.9943 24.0061 25.8002 25.0002 25.8002Z" stroke="#165DFF" stroke-width="1.2"/>
<path d="M14.5996 15.2002L17.4996 17.8002" stroke="#165DFF" stroke-width="1.1"/>
<path d="M23.4 15.2002L20.5 17.8002" stroke="#165DFF" stroke-width="1.1"/>
<path d="M14.5996 22.8002L17.4996 20.2002" stroke="#165DFF" stroke-width="1.1"/>
<path d="M23.4 22.8002L20.5 20.2002" stroke="#165DFF" stroke-width="1.1"/>
</svg>
